<svg width="30" height="25" viewBox="0 0 44 48" fill="currentColor" xmlns="http://www.w3.org/2000/svg">
<path d="M3 17.7778L22 3L41 17.7778V41C41 42.1198 40.5552 43.1937 39.7633 43.9856C38.9715 44.7774 37.8976 45.2222 36.7778 45.2222H7.22222C6.10242 45.2222 5.02848 44.7774 4.23666 43.9856C3.44484 43.1937 3 42.1198 3 41V17.7778Z" stroke="white" stroke-width="5" stroke-linecap="round" stroke-linejoin="round"/>
<path d="M3 17.7778L22 3L41 17.7778V41C41 42.1198 40.5552 43.1937 39.7633 43.9856C38.9715 44.7774 37.8976 45.2222 36.7778 45.2222H7.22222C6.10242 45.2222 5.02848 44.7774 4.23666 43.9856C3.44484 43.1937 3 42.1198 3 41V17.7778Z" stroke="white" stroke-width="5" stroke-linecap="round" stroke-linejoin="round"/>
<path d="M3 17.7778L22 3L41 17.7778V41C41 42.1198 40.5552 43.1937 39.7633 43.9856C38.9715 44.7774 37.8976 45.2222 36.7778 45.2222H7.22222C6.10242 45.2222 5.02848 44.7774 4.23666 43.9856C3.44484 43.1937 3 42.1198 3 41V17.7778Z" stroke="white" stroke-width="5" stroke-linecap="round" stroke-linejoin="round"/>
<path d="M15.6667 45.2222V24.1111H28.3334V45.2222" stroke="white" stroke-width="5" stroke-linecap="round" stroke-linejoin="round"/>
<path d="M15.6667 45.2222V24.1111H28.3334V45.2222" stroke="white" stroke-width="5" stroke-linecap="round" stroke-linejoin="round"/>
<path d="M15.6667 45.2222V24.1111H28.3334V45.2222" stroke="white" stroke-width="5" stroke-linecap="round" stroke-linejoin="round"/>
</svg>
